HIERARCHY
ROOT Hips
{
	OFFSET -1.602300 6.242603 43.997101
	CHANNELS 6 Xposition Yposition Zposition Zrotation Xrotation Yrotation
	JOINT Chest
	{
		OFFSET -0.204900 1.598101 7.917301
		CHANNELS 6 Xposition Yposition Zposition Zrotation Xrotation Yrotation
		JOINT Chest2
		{
			OFFSET 0.000000 0.000000 3.404099
			CHANNELS 6 Xposition Yposition Zposition Zrotation Xrotation Yrotation
			JOINT Neck
			{
				OFFSET 0.000000 0.000000 7.928600
				CHANNELS 6 Xposition Yposition Zposition Zrotation Xrotation Yrotation
				JOINT Head
				{
					OFFSET 0.000000 0.000000 2.173897
					CHANNELS 6 Xposition Yposition Zposition Zrotation Xrotation Yrotation
					End Site
					{
						OFFSET 0.000000 0.000001 10.404503
					}
				}
			}
			JOINT LeftCollar
			{
				OFFSET 2.833800 -1.396299 4.843300
				CHANNELS 6 Xposition Yposition Zposition Zrotation Xrotation Yrotation
				JOINT LeftShoulder
				{
					OFFSET 4.363600 0.000000 0.000000
					CHANNELS 6 Xposition Yposition Zposition Zrotation Xrotation Yrotation
					JOINT LeftElbow
					{
						OFFSET 0.000000 -0.000001 -10.306900
						CHANNELS 6 Xposition Yposition Zposition Zrotation Xrotation Yrotation
						JOINT LeftWrist
						{
							OFFSET 0.000000 -0.000001 -12.404900
							CHANNELS 6 Xposition Yposition Zposition Zrotation Xrotation Yrotation
							End Site
							{
								OFFSET 0.000000 0.000000 -2.173901
							}
						}
					}
				}
			}
			JOINT RightCollar
			{
				OFFSET -2.354800 -1.897200 5.063099
				CHANNELS 6 Xposition Yposition Zposition Zrotation Xrotation Yrotation
				JOINT RightShoulder
				{
					OFFSET -4.375800 0.000000 0.000000
					CHANNELS 6 Xposition Yposition Zposition Zrotation Xrotation Yrotation
					JOINT RightElbow
					{
						OFFSET 0.000000 -0.000001 -10.005001
						CHANNELS 6 Xposition Yposition Zposition Zrotation Xrotation Yrotation
						JOINT RightWrist
						{
							OFFSET 0.000000 -0.000001 -13.174900
							CHANNELS 6 Xposition Yposition Zposition Zrotation Xrotation Yrotation
							End Site
							{
								OFFSET 0.000000 0.000000 -2.173901
							}
						}
					}
				}
			}
		}
	}
	JOINT LeftHip
	{
		OFFSET 2.240600 0.386800 -2.614101
		CHANNELS 6 Xposition Yposition Zposition Zrotation Xrotation Yrotation
		JOINT LeftKnee
		{
			OFFSET 0.000000 -0.000001 -18.592899
			CHANNELS 6 Xposition Yposition Zposition Zrotation Xrotation Yrotation
			JOINT LeftAnkle
			{
				OFFSET 0.000000 -0.000001 -18.765800
				CHANNELS 6 Xposition Yposition Zposition Zrotation Xrotation Yrotation
				End Site
				{
					OFFSET 0.000000 -8.655000 0.000000
				}
			}
		}
	}
	JOINT RightHip
	{
		OFFSET -2.014900 -0.220900 -2.615898
		CHANNELS 6 Xposition Yposition Zposition Zrotation Xrotation Yrotation
		JOINT RightKnee
		{
			OFFSET 0.000000 -0.000001 -18.633900
			CHANNELS 6 Xposition Yposition Zposition Zrotation Xrotation Yrotation
			JOINT RightAnkle
			{
				OFFSET 0.000000 -0.000001 -18.285101
				CHANNELS 6 Xposition Yposition Zposition Zrotation Xrotation Yrotation
				End Site
				{
					OFFSET 0.000000 -7.524500 0.000000
				}
			}
		}
	}
}
MOTION
Frames: 8
Frame Time: 0.041667
-7.251100 24.750204 8.844303 3.020225 11.311255 0.982022 -0.204901 1.598099 7.917310 -37.800272 9.750930 1.808072 -0.000001 -0.000002 3.404101 6.064008 -14.864959 -1.468948 -0.000002 -0.000001 7.928598 39.594893 1.670592 -23.730712 0.000001 0.000001 2.173907 3.802140 1.498767 5.674060 2.833802 -1.396300 4.843295 -14.303099 17.530758 24.174877 4.363601 0.000012 -0.000001 -79.900707 2.678942 -111.917642 0.000003 0.000003 -10.306897 535.542784 -148.245199 545.899154 -0.000004 0.000001 -12.404896 -220.085784 366.874459 -339.103456 -2.354802 -1.897201 5.063105 9.188813 15.900633 -13.448146 -4.375798 0.000005 -0.000008 57.486916 -17.727281 121.995539 -0.000004 0.000002 -10.004992 -571.721913 -168.545286 -554.848833 -0.000007 0.000003 -13.174894 -93.205588 14.397959 352.399048 2.240596 0.386800 -2.614102 146.726028 -21.995562 110.621040 -0.000000 0.000000 -18.592896 -120.351512 32.238766 138.262522 -0.000001 0.000002 -18.765797 9.930505 33.829258 -10.163685 -2.014897 -0.220894 -2.615896 -115.189665 -16.987976 -103.207819 0.000000 0.000006 -18.633886 170.080275 29.791970 -176.220301 -0.000005 -0.000006 -18.285086 -16.761185 32.079295 -207.569517
-7.203000 24.747801 8.854603 2.774297 11.374507 1.332767 -0.204900 1.598103 7.917307 -39.096781 9.895973 2.044408 0.000002 -0.000004 3.404103 6.295184 -15.003293 -1.490640 -0.000002 0.000001 7.928598 39.079928 1.364425 -24.314224 -0.000000 0.000000 2.173905 3.927571 1.553176 5.511843 2.833804 -1.396303 4.843301 -14.342613 17.732057 23.672708 4.363601 0.000013 -0.000003 -80.561275 2.642349 -111.740686 -0.000001 0.000003 -10.306892 535.228595 -149.338767 545.661682 0.000000 0.000002 -12.404895 -218.156720 367.100565 -338.226952 -2.354804 -1.897203 5.063106 9.159612 15.898003 -14.763912 -4.375794 0.000006 -0.000001 59.074914 -18.461419 121.575810 -0.000001 0.000001 -10.004997 -571.922994 -168.997649 -553.418646 -0.000000 0.000001 -13.174889 -95.868187 13.740047 350.894111 2.240597 0.386802 -2.614105 146.936425 -21.691924 110.909445 0.000001 0.000001 -18.592892 -120.582659 32.019343 138.151682 -0.000000 0.000002 -18.765800 10.171184 33.776727 -10.101070 -2.014898 -0.220896 -2.615900 -115.045220 -16.852283 -103.092963 0.000000 0.000002 -18.633883 169.959272 29.708188 -176.216599 -0.000005 -0.000003 -18.285086 -16.719403 32.104826 -207.644021
-7.150700 24.745705 8.862003 2.513815 11.325397 1.554875 -0.204901 1.598101 7.917310 -40.311985 10.030295 2.554717 0.000002 -0.000003 3.404104 6.494924 -15.057596 -1.503326 -0.000003 0.000001 7.928606 38.506807 0.968573 -24.910028 0.000002 0.000001 2.173900 3.988488 1.531019 5.412261 2.833804 -1.396302 4.843301 -14.539822 17.936748 23.243931 4.363599 0.000013 -0.000007 -81.013277 2.719705 -111.716200 0.000002 0.000002 -10.306897 534.923586 -150.201078 545.487430 -0.000002 0.000004 -12.404896 -216.051656 367.126165 -337.405662 -2.354802 -1.897200 5.063103 9.485510 15.871536 -15.810174 -4.375795 0.000004 -0.000003 60.218622 -19.686598 121.063983 0.000001 0.000000 -10.004993 -572.845835 -169.589007 -552.295325 0.000001 0.000004 -13.174893 -98.066791 12.818639 349.269428 2.240594 0.386798 -2.614103 147.035477 -20.785290 111.022451 0.000001 -0.000001 -18.592894 -121.347354 31.634776 138.101548 -0.000001 -0.000002 -18.765797 10.554587 33.735868 -10.003007 -2.014895 -0.220896 -2.615898 -114.907278 -16.410672 -102.997422 0.000001 0.000006 -18.633886 170.122937 29.511243 -176.157791 -0.000005 -0.000005 -18.285086 -16.763482 32.089444 -207.559846
-7.091400 24.743103 8.863907 2.204786 11.076304 1.553418 -0.204901 1.598099 7.917309 -41.429127 10.135157 3.571834 -0.000000 0.000000 3.404102 6.715255 -15.106259 -1.518208 -0.000003 -0.000000 7.928604 37.818091 0.472276 -25.661125 0.000001 0.000000 2.173895 3.985034 1.446501 5.370457 2.833801 -1.396301 4.843301 -14.858054 18.237338 22.476899 4.363600 0.000010 -0.000007 -81.351132 2.640763 -111.758485 0.000002 0.000004 -10.306897 534.951126 -150.888742 545.490982 -0.000002 0.000002 -12.404896 -214.974508 367.470079 -336.694722 -2.354803 -1.897199 5.063107 9.378968 15.557708 -18.159909 -4.375794 0.000008 -0.000009 61.531193 -19.787193 120.936859 -0.000000 0.000003 -10.004995 -574.219031 -170.023489 -551.725524 0.000003 0.000003 -13.174891 -100.203424 11.916237 347.021339 2.240597 0.386797 -2.614099 147.122193 -20.537397 110.828439 0.000001 0.000001 -18.592894 -121.644276 31.484570 138.038574 -0.000001 0.000001 -18.765799 10.765110 33.700061 -10.043967 -2.014899 -0.220898 -2.615895 -114.698479 -16.721439 -102.775912 0.000000 0.000003 -18.633886 170.017274 29.386841 -176.165373 -0.000005 -0.000005 -18.285084 -16.711077 32.112964 -207.636781
-7.029699 24.740303 8.863003 1.842302 10.563697 1.330307 -0.204900 1.598100 7.917305 -42.491245 10.237091 5.238556 -0.000001 -0.000000 3.404102 6.977339 -15.179404 -1.537926 -0.000001 -0.000001 7.928598 36.979450 -0.162689 -26.698627 0.000001 0.000003 2.173904 3.950838 1.359808 5.269572 2.833803 -1.396302 4.843304 -15.257562 18.619953 21.551250 4.363600 0.000011 -0.000012 -81.478508 2.665437 -111.782336 0.000004 -0.000001 -10.306892 535.467379 -151.441345 545.559120 -0.000004 0.000003 -12.404892 -214.317840 368.389067 -335.572139 -2.354804 -1.897200 5.063096 8.525878 15.178656 -20.174724 -4.375796 0.000005 -0.000011 63.179837 -20.108468 120.247188 -0.000001 0.000000 -10.004992 -576.276939 -170.477506 -551.425323 -0.000001 0.000006 -13.174894 -101.983078 11.306960 343.985593 2.240599 0.386801 -2.614098 147.150497 -20.415217 110.297604 0.000001 0.000001 -18.592894 -121.926158 31.362361 137.985981 -0.000000 0.000001 -18.765799 10.956565 33.664390 -10.071577 -2.014895 -0.220896 -2.615900 -114.396940 -17.375177 -102.417833 0.000000 0.000004 -18.633884 169.897513 29.260264 -176.183855 -0.000006 -0.000004 -18.285084 -16.650388 32.139704 -207.719085
-6.964300 24.735106 8.859104 1.407984 9.757151 0.813584 -0.204900 1.598101 7.917306 -43.560081 10.229199 7.715391 -0.000002 -0.000002 3.404107 7.305473 -15.268227 -1.484927 -0.000005 0.000001 7.928601 36.089418 -1.022445 -28.117046 -0.000000 0.000002 2.173897 3.901485 1.225381 5.339434 2.833802 -1.396304 4.843306 -15.812851 19.162062 20.377781 4.363598 0.000013 -0.000008 -81.472102 2.689370 -111.964716 0.000003 -0.000001 -10.306891 535.999915 -151.975657 545.702390 -0.000003 0.000002 -12.404890 -213.709898 369.291390 -336.027194 -2.354805 -1.897202 5.063101 8.259841 14.806262 -22.651709 -4.375795 0.000008 -0.000005 64.124049 -20.626743 119.510538 -0.000001 0.000001 -10.004995 -579.106878 -170.857838 -551.402046 -0.000003 0.000002 -13.174892 -103.270418 11.101264 341.328814 2.240596 0.386801 -2.614107 147.110923 -20.412213 109.346950 0.000002 0.000001 -18.592894 -122.183027 31.262875 137.939482 0.000001 0.000001 -18.765799 11.119475 33.619943 -10.045287 -2.014898 -0.220895 -2.615904 -113.986759 -18.414825 -101.917583 0.000001 0.000004 -18.633886 169.781591 29.118152 -176.206354 -0.000005 -0.000004 -18.285082 -16.590769 32.166568 -207.795555
-6.897800 24.728399 8.853909 0.964739 9.050672 0.424060 -0.204899 1.598103 7.917299 -44.512995 10.140036 9.882833 0.000001 0.000003 3.404102 7.654991 -15.265587 -1.506297 -0.000009 0.000000 7.928600 35.185515 -1.746756 -29.356788 0.000002 0.000001 2.173906 3.763757 1.063271 5.344555 2.833797 -1.396301 4.843306 -16.439304 19.675361 19.205247 4.363598 0.000008 0.000002 -81.463605 2.427120 -112.141235 0.000003 0.000000 -10.306892 536.548843 -152.463401 545.823585 -0.000005 0.000003 -12.404890 -213.094348 370.712315 -336.104812 -2.354809 -1.897204 5.063101 8.090105 14.453778 -24.778740 -4.375795 0.000004 -0.000006 64.655479 -21.132774 118.657434 0.000000 0.000002 -10.004989 -582.581477 -171.196369 -551.625858 -0.000002 0.000002 -13.174891 -104.077876 10.897468 338.553189 2.240597 0.386802 -2.614105 147.142834 -20.381081 108.582734 0.000001 -0.000003 -18.592892 -122.445225 31.153193 137.891274 0.000000 0.000001 -18.765799 11.275298 33.564612 -9.942831 -2.014895 -0.220892 -2.615902 -113.575562 -19.359845 -101.448486 0.000000 0.000005 -18.633890 169.623090 28.988091 -176.240887 -0.000005 -0.000005 -18.285084 -16.520050 32.199663 -207.890372
-6.831700 24.720903 8.848103 0.533404 8.510446 0.302532 -0.204900 1.598099 7.917300 -45.404806 10.080359 11.489211 0.000002 -0.000001 3.404099 8.008706 -15.253225 -1.511085 -0.000003 -0.000000 7.928601 34.390477 -2.334503 -30.476888 -0.000000 0.000001 2.173908 3.640034 0.939777 5.246456 2.833800 -1.396299 4.843309 -16.776594 20.091164 17.829277 4.363598 0.000011 -0.000005 -81.649352 1.857792 -112.120759 0.000003 0.000003 -10.306892 537.075150 -152.889413 545.901066 -0.000003 0.000005 -12.404895 -212.388489 372.331671 -336.617267 -2.354805 -1.897198 5.063101 7.807684 14.112629 -26.344297 -4.375795 0.000005 -0.000011 65.093595 -21.723051 117.479827 -0.000002 0.000002 -10.004993 -586.654565 -171.610689 -551.994141 -0.000002 0.000001 -13.174891 -104.681084 10.922693 335.998097 2.240595 0.386802 -2.614106 147.288508 -20.415167 108.172349 0.000001 0.000002 -18.592890 -122.657930 31.055067 137.840198 -0.000000 0.000001 -18.765799 11.407631 33.497502 -9.776001 -2.014895 -0.220894 -2.615903 -113.184970 -19.978411 -101.022166 0.000001 0.000003 -18.633881 169.467976 28.858352 -176.274711 -0.000005 -0.000001 -18.285086 -16.450854 32.232554 -207.980722
